<?xml version="1.0" encoding="utf-8" ?>
<svg baseProfile="full" height="200mm" version="1.1" viewBox="0,0,200,200" width="200mm" xmlns="http://www.w3.org/2000/svg" xmlns:ev="http://www.w3.org/2001/xml-events" xmlns:xlink="http://www.w3.org/1999/xlink"><defs /><rect fill="#1a1a1a" height="200" width="200" x="0" y="0" /><text alignment-baseline="middle" fill="#e1ed5e" style="dominant-baseline: central; font-size:9.0px; font-family:Arial;" text-anchor="middle" x="100.0" y="100.0">2025</text><line stroke="#e1ed5e" stroke-width="0.3" x1="100.0" x2="100.0" y1="15.0" y2="10.0" /><path d="M 100.0 14.0 a86.0,86.0 0 0,1 42.46469731375804,11.215312516191453" fill="none" id="id1" stroke="none" /><text fill="#e1ed5e" style="font-size:6.75px; font-family:Arial;" text-anchor="middle"><textPath startOffset="22.20632615414155" xlink:href="#id1">January</textPath></text><line stroke="#e1ed5e" stroke-width="0.3" x1="143.23703022742887" x2="145.7803849466894" y1="26.81831364943548" y2="22.513508569990506" /><path d="M 143.74570117128098 25.957352633546492 a86.0,86.0 0 0,1 28.547481713284135,27.462654790039103" fill="none" id="id2" stroke="none" /><text fill="#e1ed5e" style="font-size:6.75px; font-family:Arial;" text-anchor="middle"><textPath startOffset="19.985693538727396" xlink:href="#id2">February</textPath></text><line stroke="#e1ed5e" stroke-width="0.3" x1="172.23445277983987" x2="176.4835382374775" y1="55.19839476539836" y2="52.563006222186495" /><path d="M 173.08426987136738 54.67131705675599 a86.0,86.0 0 0,1 12.851231095245387,41.99856678651699" fill="none" id="id3" stroke="none" /><text fill="#e1ed5e" style="font-size:6.75px; font-family:Arial;" text-anchor="middle"><textPath startOffset="22.20632615414155" xlink:href="#id3">March</textPath></text><path d="M 120.83666639777658 97.38593545837742 l 8.705313749718279 -1.0921253698848048 a29.773552604537123,29.773552604537123 0 0,0 0.0594190037850108,0.5090657378558783 l -8.722823106506878 0.9421158937040737" fill="red" stroke="none" /><line stroke="#e1ed5e" stroke-width="0.3" x1="184.98032266829074" x2="189.97916517819016" y1="98.17113171792111" y2="98.06355123074" /><path d="M 185.9800911702706 98.14961562048488 a86.0,86.0 0 0,1 -9.607161424134198,41.387399972396054" fill="none" id="id4" stroke="none" /><text fill="#e1ed5e" style="font-size:6.75px; font-family:Arial;" text-anchor="middle"><textPath startOffset="21.466115282336823" xlink:href="#id4">April</textPath></text><path d="M 120.92983693683757 101.71520430193887 l 15.579747609783432 1.276763416937545 a36.631975575959125,36.631975575959125 0 0,0 -0.05691109487304677,0.628009189599023 l -15.555461918633311 -1.5447539950851386" fill="red" stroke="none" /><path d="M 120.76222939487914 103.15116336523771 l 27.1810552890657 4.125373245154964 a48.492334768787586,48.492334768787586 0 0,0 -0.13235693123200004,0.8241867371262213 l -27.106016603472412 -4.59263921197439" fill="red" stroke="none" /><path d="M 120.5718875245553 104.21870165774334 l 29.95385179495065 6.14267232757915 a51.57720818972646,51.57720818972646 0 0,0 -0.18583995417072283,0.868182396579214 l -29.843677802055485 -6.657368543574533" fill="red" stroke="none" /><path d="M 120.49622156327973 104.57218783832717 l 35.57823033993789 7.936601952083734 a57.4527107999871,57.4527107999871 0 0,0 -0.22362628888316957,0.9633761996649554 l -35.43634348512417 -8.547846809097255" fill="red" stroke="none" /><path d="M 120.32669344350535 105.2749913415812 l 35.93588070403498 9.325740071435332 a58.12622994399793,58.12622994399793 0 0,0 -0.2596634974307922,0.9663044711320296 l -35.77002913026241 -9.94293547574291" fill="red" stroke="none" /><path d="M 119.9155931802556 106.66101706037122 l 41.07035383715928 13.736489046985525 a64.3066403181708,64.3066403181708 0 0,0 -0.3601452634596477,1.0467507158747114 l -40.8278177427564 -14.441412465949536" fill="red" stroke="none" /><path d="M 119.79798401119884 107.00284435728193 l 40.858994782880686 14.45244025339434 a64.3397102429793,64.3397102429793 0 0,0 -0.37830444137911673,1.0409313473828288 l -40.60416608049634 -15.153619397783299" fill="red" stroke="none" /><path d="M 119.54520255179757 107.68017299344265 l 40.92731538824841 16.082149136388786 a64.97363603040128,64.97363603040128 0 0,0 -0.417988969995186,1.037414344502119 l -40.644423803995835 -16.784262848733718" fill="red" stroke="none" /><path d="M 119.26925614724726 108.34839909993367 l 39.45933288892566 17.095743429667888 a64.00352770938778,64.00352770938778 0 0,0 -0.44668036164094244,1.0071462953287404 l -39.15921144255344 -17.772438061489318" fill="red" stroke="none" /><path d="M 118.97047184881838 109.00673069616215 l 40.42574021545894 19.193183923695077 a65.75062883464948,65.75062883464948 0 0,0 -0.4942153636706706,1.0182300309169534 l -40.08937159517355 -19.886202910577303" fill="red" stroke="none" /><path d="M 118.81262510543309 109.33194174019688 l 38.572608070358555 19.133817277636506 a64.05750871756831,64.05750871756831 0 0,0 -0.49849348975250857,0.983574947371326 l -38.23753591081978 -19.79494643671053" fill="red" stroke="none" /><line stroke="#e1ed5e" stroke-width="0.3" x1="174.80103733775053" x2="179.2010983576182" y1="140.37084112569926" y2="142.7455964860345" /><path d="M 175.68104954172406 140.8457921977663 a86.0,86.0 0 0,1 -30.038265399797805,32.042727171017184" fill="none" id="id5" stroke="none" /><text fill="#e1ed5e" style="font-size:6.75px; font-family:Arial;" text-anchor="middle"><textPath startOffset="22.206326154141568" xlink:href="#id5">May</textPath></text><path d="M 118.48025628344425 109.97397251340804 l 45.55683154566172 24.587461270299297 a72.76840882428459,72.76840882428459 0 0,0 -0.604406054553913,1.09717255062142 l -45.126849081656296 -25.36800433931852" fill="red" stroke="none" /><path d="M 118.12598468904814 110.60418214915192 l 24.195457759498858 14.154984993386911 a49.031835051503535,49.031835051503535 0 0,0 -0.43245874053087874,0.7248257241100325 l -23.948218143269752 -14.569372811383047" fill="red" stroke="none" /><path d="M 117.55443506779139 111.5257021239791 l 47.792554764211445 31.379121448740744 a78.17322409821726,78.17322409821726 0 0,0 -0.7482178706558789,1.1184841970967303 l -47.24533378814484 -32.19714256004328" fill="red" stroke="none" /><path d="M 117.35343817320211 111.8261652097733 l 24.403773557980095 16.630886338376587 a50.531856431135,50.531856431135 0 0,0 -0.4960281449584449,0.7145655383398375 l -24.113884505859517 -17.048493138903446" fill="red" stroke="none" /><path d="M 117.14729908036423 112.12312394758627 l 36.47297651362323 25.786359294239652 a65.66782221482184,65.66782221482184 0 0,0 -0.6604938591646033,0.9173682019542093 l -36.02370286208302 -26.410361101644995" fill="red" stroke="none" /><path d="M 116.71984013943494 112.70617746262583 l 34.54753077834556 26.254261602050335 a64.3914523281905,64.3914523281905 0 0,0 -0.6782357278296892,0.876711105316052 l -34.090488233297805 -26.84505070147964" fill="red" stroke="none" /><path d="M 116.498646956653 112.99209946851258 l 34.723499194498835 27.343524388091023 a65.19716871330662,65.19716871330662 0 0,0 -0.7019005728960149,0.8757288868346057 l -34.247680709547964 -27.93718110850388" fill="red" stroke="none" /><path d="M 116.0416608686014 113.55231037782055 l 26.895672637368342 22.721992840237014 a56.208893269290165,56.208893269290165 0 0,0 -0.6307641298878507,0.733721184566566 l -26.500565997909714 -23.18159112396511" fill="red" stroke="none" /><path d="M 115.80600337817218 113.82643327865902 l 47.41801013451653 41.47929983597707 a84.0,84.0 0 0,0 -0.9613646014066468,1.080103321036534 l -46.696986683461546 -42.289377326754476" fill="red" stroke="none" /><path d="M 115.32070863581623 114.36230785411682 l 13.026796700384908 12.21189365396175 a38.85574918307351,38.85574918307351 0 0,0 -0.4616311839256664,0.4840184507689092 l -12.814658965080278 -12.434319221313167" fill="red" stroke="none" /><path d="M 114.81725581225074 114.88116024355365 l 31.76259134641065 31.899578273168103 a66.01605605831168,66.01605605831168 0 0,0 -0.8121548203155743,0.7948644276096107 l -31.208786573719284 -32.44159280370029" fill="red" stroke="none" /><path d="M 114.55890576462653 115.13401014063108 l 31.118061046512302 32.34728344618658 a65.885192097644,65.885192097644 0 0,0 -0.8240799527775721,0.7792190318283855 l -30.556645259343924 -32.87813711476089" fill="red" stroke="none" /><line stroke="#e1ed5e" stroke-width="0.3" x1="143.8653032363475" x2="146.44561519142675" y1="172.8068346515853" y2="177.08958963109032" /><path d="M 144.38136562736335 173.6633856474863 a86.0,86.0 0 0,1 -40.68145358897372,12.25698825130547" fill="none" id="id6" stroke="none" /><text fill="#e1ed5e" style="font-size:6.75px; font-family:Arial;" text-anchor="middle"><textPath startOffset="21.466115282336833" xlink:href="#id6">June</textPath></text><line stroke="#e1ed5e" stroke-width="0.3" x1="102.19456741930631" x2="102.32365962044197" y1="184.97166512339345" y2="189.96999836594603" /><path d="M 102.22038585953345 185.97133177190398 a86.0,86.0 0 0,1 -42.740103519485714,-10.115201625700543" fill="none" id="id7" stroke="none" /><text fill="#e1ed5e" style="font-size:6.75px; font-family:Arial;" text-anchor="middle"><textPath startOffset="22.20632615414155" xlink:href="#id7">July</textPath></text><line stroke="#e1ed5e" stroke-width="0.3" x1="58.666819895761336" x2="56.23545636021788" y1="174.27360380694188" y2="178.64263932499728" /><path d="M 58.180547188652646 175.14741091055294 a86.0,86.0 0 0,1 -31.652253787137756,-30.449443065178592" fill="none" id="id8" stroke="none" /><text fill="#e1ed5e" style="font-size:6.75px; font-family:Arial;" text-anchor="middle"><textPath startOffset="22.20632615414155" xlink:href="#id8">August</textPath></text><line stroke="#e1ed5e" stroke-width="0.3" x1="26.63291911575756" x2="22.317208475507996" y1="142.92168965132927" y2="145.44649492493687" /><path d="M 25.769776987707644 143.4266507060508 a86.0,86.0 0 0,1 -11.730757126820373,-40.83630448921669" fill="none" id="id9" stroke="none" /><text fill="#e1ed5e" style="font-size:6.75px; font-family:Arial;" text-anchor="middle"><textPath startOffset="21.46611528233685" xlink:href="#id9">September</textPath></text><line stroke="#e1ed5e" stroke-width="0.3" x1="15.007084014347285" x2="10.007500721073583" y1="101.09737516637583" y2="101.16192664675087" /><path d="M 14.007167355692545 101.11028546245083 a86.0,86.0 0 0,1 10.666146001902534,-42.60595125391555" fill="none" id="id10" stroke="none" /><text fill="#e1ed5e" style="font-size:6.75px; font-family:Arial;" text-anchor="middle"><textPath startOffset="22.20632615414155" xlink:href="#id10">October</textPath></text><line stroke="#e1ed5e" stroke-width="0.3" x1="26.266209847984243" x2="21.928928074336255" y1="57.711370442889674" y2="55.22380399835377" /><path d="M 25.398753493254645 57.213857153982495 a86.0,86.0 0 0,1 29.58750427330803,-30.492523968695096" fill="none" id="id11" stroke="none" /><text fill="#e1ed5e" style="font-size:6.75px; font-family:Arial;" text-anchor="middle"><textPath startOffset="21.46611528233685" xlink:href="#id11">November</textPath></text><line stroke="#e1ed5e" stroke-width="0.3" x1="56.762969772571076" x2="54.21961505331055" y1="26.818313649435495" y2="22.513508569990535" /><path d="M 56.25429882871897 25.957352633546506 a86.0,86.0 0 0,1 42.265352541879196,-11.944610805530505" fill="none" id="id12" stroke="none" /><text fill="#e1ed5e" style="font-size:6.75px; font-family:Arial;" text-anchor="middle"><textPath startOffset="22.20632615414155" xlink:href="#id12">December</textPath></text></svg>